# xmcd
#
# Track frame offsets:
#	150
#	14369
#	34595
#	51580
#	70203
#	84758
#	104706
#	119645
#	139499
#	159424
#	183518
#
# Disc length: 2659 seconds
#
# Revision: 0
# Processed by: cddbd v1.5.1PL2 Copyright (c) Steve Scherf et al.
# Submitted via: EasyCDDAExtractor 8.1.0.1
#
DISCID=9c0a610b
DTITLE=The Crooners - So Many Places
DYEAR=2006
DGENRE=country
TTITLE0=On My Way
TTITLE1=Don't Walk Out On Me
TTITLE2=Terms Of Endearment
TTITLE3=New Kind Of Blue
TTITLE4=Give A Little Peace To You
TTITLE5=Leave It Up To Me
TTITLE6=Signifying Monkey
TTITLE7=Mr. Liberty
TTITLE8=Love Is A Holiday
TTITLE9=Lady Lazarus
TTITLE10=Different Names
EXTD=
EXTT0=
EXTT1=
EXTT2=
EXTT3=
EXTT4=
EXTT5=
EXTT6=
EXTT7=
EXTT8=
EXTT9=
EXTT10=
PLAYORDER=
